<svg width="53" height="50" viewBox="0 0 53 50" fill="none" xmlns="http://www.w3.org/2000/svg">
<path d="M34.7812 0.00217004C35.2298 0.00217004 35.618 0.167093 35.9458 0.49694L52.5083 17.1629C52.8361 17.4927 53 17.8833 53 18.3347C53 18.7861 52.8361 19.1767 52.5083 19.5065L46.2197 25.8344C46.651 26.2684 47.0737 26.685 47.4878 27.0843C47.9019 27.4836 48.2642 27.8916 48.5747 28.3082C48.8853 28.7249 49.144 29.1936 49.3511 29.7144C49.5581 30.2352 49.6616 30.8168 49.6616 31.4591C49.6616 32.1536 49.5322 32.8132 49.2734 33.4382C49.0146 34.0632 48.661 34.61 48.2124 35.0788C47.7638 35.5475 47.2376 35.9207 46.6338 36.1985C46.0299 36.4763 45.383 36.6238 44.6929 36.6412C44.6584 37.353 44.5117 38.004 44.2529 38.5942C43.9941 39.1845 43.6491 39.7053 43.2178 40.1567C42.7865 40.608 42.2689 40.9639 41.665 41.2243C41.0612 41.4847 40.4142 41.6236 39.7241 41.641C39.7069 42.3354 39.5602 42.9864 39.2842 43.594C39.0081 44.2016 38.6372 44.7311 38.1714 45.1825C37.7056 45.6339 37.1621 45.9984 36.541 46.2762C35.9199 46.554 35.2643 46.6842 34.5742 46.6668C34.0221 46.6668 33.4614 46.5713 32.8921 46.3804C32.7023 46.9185 32.4521 47.4046 32.1416 47.8386C31.8311 48.2726 31.4515 48.6546 31.0029 48.9844C30.5544 49.3143 30.0799 49.566 29.5796 49.7396C29.0793 49.9132 28.5358 50 27.9492 50C27.5007 50 27.1038 49.9653 26.7588 49.8958C26.4137 49.8264 26.0946 49.7049 25.8013 49.5313C25.508 49.3577 25.2147 49.1667 24.9214 48.9584C24.6281 48.7501 24.3262 48.4983 24.0156 48.2032C23.4118 48.7587 22.8252 49.1927 22.2559 49.5052C21.6865 49.8177 20.9619 49.9826 20.082 50C19.3919 50 18.7363 49.8698 18.1152 49.6094C17.4941 49.349 16.9507 48.9931 16.4849 48.5417C16.019 48.0904 15.6481 47.5609 15.3721 46.9533C15.096 46.3456 14.9494 45.686 14.9321 44.9742C14.2593 44.9568 13.6209 44.8179 13.0171 44.5575C12.4132 44.2971 11.887 43.9412 11.4385 43.4899C10.9899 43.0385 10.6362 42.509 10.3774 41.9014C10.1187 41.2938 9.98063 40.6514 9.96338 39.9744C9.27327 39.957 8.63493 39.8181 8.04834 39.5577C7.46175 39.2973 6.94417 38.9415 6.49561 38.4901C6.04704 38.0387 5.69336 37.5092 5.43457 36.9016C5.17578 36.294 5.02913 35.6517 4.99463 34.9746C4.28727 34.9572 3.63167 34.8097 3.02783 34.5319C2.42399 34.2542 1.89779 33.8809 1.44922 33.4122C1.00065 32.9434 0.646973 32.4053 0.388184 31.7977C0.129395 31.1901 0 30.5304 0 29.8186C0 29.1068 0.129395 28.4384 0.388184 27.8135C0.646973 27.1885 1.02653 26.6243 1.52686 26.1208L4.27002 23.3345L0.491699 19.5065C0.1639 19.1767 0 18.7861 0 18.3347C0 17.8833 0.1639 17.4927 0.491699 17.1629L17.0542 0.49694C17.382 0.167093 17.7702 0.00217004 18.2188 0.00217004C18.6673 0.00217004 19.0555 0.167093 19.3833 0.49694L22.7993 3.93429C23.0236 3.86485 23.4549 3.71729 24.0933 3.4916C24.7316 3.26592 25.4821 3.01419 26.3447 2.73643C27.2074 2.45866 28.0959 2.15485 29.0103 1.82501C29.9246 1.49516 30.8045 1.20003 31.6499 0.939629C32.4953 0.679224 33.194 0.453539 33.7461 0.262575C34.2982 0.0716115 34.6432 -0.0151903 34.7812 0.00217004ZM8.07422 25.0011C7.57389 25.0011 7.14258 25.1834 6.78027 25.5479L3.85596 28.4645C3.49365 28.829 3.3125 29.2717 3.3125 29.7925C3.3125 30.3134 3.48503 30.7474 3.83008 31.0946C4.17513 31.4418 4.61507 31.6241 5.1499 31.6414C5.68473 31.6414 6.12467 31.4678 6.46973 31.1206L9.39404 28.2041C9.75635 27.8395 9.9375 27.3968 9.9375 26.876C9.9375 26.3552 9.75635 25.9125 9.39404 25.5479C9.03174 25.1834 8.5918 25.0011 8.07422 25.0011ZM13.043 30.0009C12.8014 30.0009 12.5685 30.0443 12.3442 30.1311C12.12 30.2179 11.9129 30.3568 11.7231 30.5477L8.82471 33.4903C8.4624 33.8549 8.28125 34.2976 8.28125 34.8184C8.28125 35.3218 8.4624 35.7471 8.82471 36.0944C9.18701 36.4416 9.62695 36.6238 10.1445 36.6412C10.3861 36.6412 10.619 36.5978 10.8433 36.511C11.0675 36.4242 11.2746 36.294 11.4644 36.1204L14.3628 33.1778C14.7251 32.8132 14.9062 32.3792 14.9062 31.8758C14.9062 31.355 14.7251 30.9123 14.3628 30.5477C14.0005 30.1832 13.5605 30.0009 13.043 30.0009ZM18.0117 35.0007C17.5114 35.0007 17.0801 35.1829 16.7178 35.5475L13.7935 38.464C13.4312 38.8286 13.25 39.2713 13.25 39.7921C13.25 40.3129 13.4225 40.7469 13.7676 41.0941C14.1126 41.4413 14.5526 41.6236 15.0874 41.641C15.6222 41.641 16.0622 41.4674 16.4072 41.1202L19.3315 38.2036C19.6938 37.8391 19.875 37.3964 19.875 36.8756C19.875 36.3548 19.6938 35.9121 19.3315 35.5475C18.9692 35.1829 18.5293 35.0007 18.0117 35.0007ZM18.2188 44.8179C18.2188 45.3214 18.3999 45.7467 18.7622 46.0939C19.1245 46.4411 19.5645 46.6234 20.082 46.6408C20.3236 46.6408 20.5565 46.5974 20.7808 46.5106C21.005 46.4238 21.2121 46.2936 21.4019 46.12L24.3003 43.1774C24.6626 42.8128 24.8438 42.3788 24.8438 41.8754C24.8438 41.3545 24.6626 40.9119 24.3003 40.5473C23.938 40.1827 23.498 40.0004 22.9805 40.0004C22.7389 40.0004 22.506 40.0438 22.2817 40.1306C22.0575 40.2174 21.8504 40.3563 21.6606 40.5473L18.7622 43.4899C18.3999 43.8544 18.2188 44.2971 18.2188 44.8179ZM44.5117 33.3341C45.012 33.3341 45.4434 33.1518 45.8057 32.7872C46.168 32.4226 46.3577 31.9886 46.375 31.4852C46.375 30.9644 46.1938 30.5217 45.8315 30.1571L29.4761 13.6735C29.4243 13.6214 29.3381 13.578 29.2173 13.5432C29.0965 13.5085 28.9757 13.4738 28.855 13.4391C28.7342 13.4044 28.6048 13.3783 28.4668 13.361C28.3288 13.3436 28.2253 13.3349 28.1562 13.3349C27.7077 13.3349 27.285 13.4217 26.8882 13.5953C26.4914 13.7689 26.1377 14.0033 25.8271 14.2984C25.5166 14.5935 25.2751 14.9494 25.1025 15.3661C24.93 15.7827 24.8438 16.2167 24.8438 16.6681C24.8438 17.5882 24.6712 18.4475 24.3262 19.2461C23.9811 20.0447 23.5067 20.7565 22.9028 21.3814C22.299 22.0064 21.6003 22.4838 20.8066 22.8137C20.013 23.1435 19.1504 23.3171 18.2188 23.3345C17.5286 23.3345 16.8817 23.2043 16.2778 22.9439C15.674 22.6835 15.1478 22.3276 14.6992 21.8762C14.2507 21.4248 13.897 20.8954 13.6382 20.2877C13.3794 19.6801 13.25 19.0291 13.25 18.3347C13.25 17.9181 13.2931 17.458 13.3794 16.9546C13.4657 16.4511 13.6037 15.9997 13.7935 15.6005L18.6328 5.83525C18.7881 5.55748 19.021 5.3318 19.3315 5.1582L18.2188 4.03845L3.98535 18.3347L7.479 21.8241C8.25537 21.7373 8.98861 21.7894 9.67871 21.9804C10.3688 22.1713 10.9727 22.4925 11.4902 22.9439C12.0078 23.3953 12.4219 23.9421 12.7324 24.5844C13.043 25.2268 13.2069 25.9472 13.2241 26.7458C13.9142 26.7805 14.5612 26.9194 15.165 27.1624C15.7689 27.4055 16.2865 27.7527 16.7178 28.2041C17.1491 28.6554 17.5028 29.1763 17.7788 29.7665C18.0549 30.3568 18.1929 31.0164 18.1929 31.7456C18.883 31.7803 19.5299 31.9192 20.1338 32.1622C20.7376 32.4053 21.2552 32.7525 21.6865 33.2039C22.1178 33.6552 22.4715 34.176 22.7476 34.7663C23.0236 35.3565 23.1616 36.0162 23.1616 36.7454C23.869 36.7801 24.5246 36.9277 25.1284 37.1881C25.7323 37.4485 26.2585 37.8043 26.707 38.2557C27.1556 38.7071 27.5093 39.2453 27.7681 39.8702C28.0269 40.4952 28.1562 41.1636 28.1562 41.8754C28.1562 42.6566 28.001 43.3857 27.6904 44.0628C27.3799 44.7398 26.9313 45.3301 26.3447 45.8335C26.6035 46.0766 26.8364 46.2762 27.0435 46.4324C27.2505 46.5887 27.5524 46.6668 27.9492 46.6668C28.4495 46.6668 28.8809 46.4845 29.2432 46.12C29.6055 45.7554 29.7952 45.3214 29.8125 44.8179C29.8125 44.2971 29.6313 43.8544 29.269 43.4899L31.5981 41.1202L33.2803 42.7868C33.6771 43.1513 34.1084 43.3336 34.5742 43.3336C35.0745 43.3336 35.5059 43.1513 35.8682 42.7868C36.2305 42.4222 36.4202 41.9882 36.4375 41.4847C36.4375 40.9639 36.2563 40.5212 35.894 40.1567L32.9697 37.2141L35.3247 34.8704L38.2231 37.787C38.5854 38.1516 39.0254 38.3338 39.543 38.3338C40.0605 38.3338 40.5005 38.1516 40.8628 37.787C41.2251 37.4224 41.4062 36.9797 41.4062 36.4589C41.4062 35.9381 41.2251 35.4954 40.8628 35.1309L37.9385 32.2143L40.2935 29.8446L43.2178 32.7872C43.5801 33.1518 44.0114 33.3341 44.5117 33.3341ZM48.9888 18.3347L34.3413 3.56972L21.2983 7.94453L16.7954 17.0066C16.7091 17.1629 16.6488 17.3799 16.6143 17.6577C16.5798 17.9354 16.5625 18.1611 16.5625 18.3347C16.5625 18.7861 16.7264 19.1767 17.0542 19.5065C17.382 19.8364 17.7702 20.0013 18.2188 20.0013C18.6846 20.0013 19.1159 19.9145 19.5127 19.7409C19.9095 19.5673 20.2546 19.3329 20.5479 19.0378C20.8411 18.7427 21.0827 18.3868 21.2725 17.9701C21.4622 17.5535 21.5485 17.1195 21.5312 16.6681C21.5312 15.748 21.7038 14.8887 22.0488 14.0901C22.3939 13.2915 22.8683 12.5797 23.4722 11.9548C24.076 11.3298 24.7747 10.8524 25.5684 10.5225C26.362 10.1927 27.2246 10.0191 28.1562 10.0017C28.4323 10.0017 28.7256 10.0278 29.0361 10.0799C29.3467 10.1319 29.6745 10.2014 30.0195 10.2882C30.3646 10.375 30.6665 10.4965 30.9253 10.6527C31.1841 10.809 31.4342 10.9913 31.6758 11.1996L43.8906 23.4907L48.9888 18.3347Z" fill="#C0BCCD"/>
</svg>
