<svg width="44" height="54" viewBox="0 0 44 54" fill="none" xmlns="http://www.w3.org/2000/svg">
<path d="M4.85754 32C2.98169 28.9281 1.99268 25.3969 2.00004 21.7975C2.00004 10.8625 10.955 2 22 2C33.045 2 42 10.8625 42 21.7975C42.0074 25.3969 41.0184 28.9281 39.1425 32M29.5 44.5L29.175 46.1175C28.825 47.885 28.6475 48.7675 28.25 49.4675C27.6375 50.5464 26.6458 51.359 25.4675 51.7475C24.705 52 23.8 52 22 52C20.2 52 19.295 52 18.5325 51.75C17.3539 51.3609 16.3621 50.5473 15.75 49.4675C15.3525 48.7675 15.175 47.885 14.825 46.1175L14.5 44.5M10.4575 39.745C10.2275 39.055 10.1125 38.7075 10.125 38.4275C10.1392 38.138 10.2369 37.8588 10.4064 37.6236C10.5759 37.3885 10.8099 37.2075 11.08 37.1025C11.34 37 11.705 37 12.43 37H31.57C32.2975 37 32.66 37 32.92 37.1C33.1906 37.2051 33.4248 37.3865 33.5944 37.6222C33.7639 37.8578 33.8614 38.1375 33.875 38.4275C33.8875 38.7075 33.7725 39.0525 33.5425 39.745C33.1175 41.0225 32.905 41.6625 32.5775 42.18C31.8925 43.2615 30.8188 44.0391 29.5775 44.3525C28.9825 44.5 28.3125 44.5 26.97 44.5H17.03C15.6875 44.5 15.015 44.5 14.4225 44.35C13.1817 44.0372 12.108 43.2606 11.4225 42.18C11.095 41.6625 10.8825 41.0225 10.4575 39.745Z" stroke="#C0BCCD" stroke-width="3" stroke-linecap="round" stroke-linejoin="round"/>
<path d="M12.625 21.375L18.25 27V37M31.375 21.375L25.75 27V37M12.625 23.25C13.1223 23.25 13.5992 23.0525 13.9508 22.7008C14.3025 22.3492 14.5 21.8723 14.5 21.375C14.5 20.8777 14.3025 20.4008 13.9508 20.0492C13.5992 19.6975 13.1223 19.5 12.625 19.5C12.1277 19.5 11.6508 19.6975 11.2992 20.0492C10.9475 20.4008 10.75 20.8777 10.75 21.375C10.75 21.8723 10.9475 22.3492 11.2992 22.7008C11.6508 23.0525 12.1277 23.25 12.625 23.25ZM31.375 23.25C30.8777 23.25 30.4008 23.0525 30.0492 22.7008C29.6975 22.3492 29.5 21.8723 29.5 21.375C29.5 20.8777 29.6975 20.4008 30.0492 20.0492C30.4008 19.6975 30.8777 19.5 31.375 19.5C31.8723 19.5 32.3492 19.6975 32.7008 20.0492C33.0525 20.4008 33.25 20.8777 33.25 21.375C33.25 21.8723 33.0525 22.3492 32.7008 22.7008C32.3492 23.0525 31.8723 23.25 31.375 23.25Z" stroke="#C0BCCD" stroke-width="3" stroke-linecap="round" stroke-linejoin="round"/>
</svg>
